HIERARCHY
ROOT Bip001_Pelvis
{
  OFFSET 34.4345 95.6767 -26.8758
  CHANNELS 6 Xposition Yposition Zposition Zrotation Xrotation Yrotation
  JOINT Bip001_Spine
  {
    OFFSET 1.4188e-005 10.2191 -0.0116013
    CHANNELS 3 Zrotation Xrotation Yrotation
    JOINT Bip001_L_Thigh
    {
      OFFSET 11.0458 -10.2192 0.0116197
      CHANNELS 3 Zrotation Xrotation Yrotation
      JOINT Bip001_L_Calf
      {
        OFFSET -0.707118 -44.0221 0.360014
        CHANNELS 3 Zrotation Xrotation Yrotation
        JOINT Bip001_L_Foot
        {
          OFFSET -0.651902 -40.5938 -3.56146
          CHANNELS 3 Zrotation Xrotation Yrotation
          JOINT Bip001_L_Toe0
          {
            OFFSET 0.0530839 -10.2181 13.1504
            CHANNELS 3 Zrotation Xrotation Yrotation
            End Site
            {
              OFFSET -1.02532e-005 0 7.55606
            }
          }
        }
      }
    }
    JOINT Bip001_R_Thigh
    {
      OFFSET -11.0458 -10.2191 0.0115893
      CHANNELS 3 Zrotation Xrotation Yrotation
      JOINT Bip001_R_Calf
      {
        OFFSET 0.706994 -44.0221 0.35984
        CHANNELS 3 Zrotation Xrotation Yrotation
        JOINT Bip001_R_Foot
        {
          OFFSET 0.651786 -40.5938 -3.5613
          CHANNELS 3 Zrotation Xrotation Yrotation
          JOINT Bip001_R_Toe0
          {
            OFFSET -0.0531479 -10.2181 13.1504
            CHANNELS 3 Zrotation Xrotation Yrotation
            End Site
            {
              OFFSET -1.02894e-005 0 7.55606
            }
          }
        }
      }
    }
    JOINT Bip001_Spine1
    {
      OFFSET 1.87041e-005 14.5736 1.08638
      CHANNELS 3 Zrotation Xrotation Yrotation
      JOINT Bip001_Spine2
      {
        OFFSET 2.24614e-005 14.5058 -1.69078
        CHANNELS 3 Zrotation Xrotation Yrotation
        JOINT Bip001_Neck
        {
          OFFSET 2.20278e-005 15.3945 -0.489414
          CHANNELS 3 Zrotation Xrotation Yrotation
          JOINT Bip001_L_Clavicle
          {
            OFFSET 6.06036 -0.000579998 0.00836775
            CHANNELS 3 Zrotation Xrotation Yrotation
            JOINT Bip001_L_UpperArm
            {
              OFFSET 11.5509 -0.0600302 0.00193952
              CHANNELS 3 Zrotation Xrotation Yrotation
              JOINT Bip001_L_Forearm
              {
                OFFSET 25.9523 0.0806089 -2.15551
                CHANNELS 3 Zrotation Xrotation Yrotation
                JOINT Bip001_L_Hand
                {
                  OFFSET 32.2475 0.153767 1.63968
                  CHANNELS 3 Zrotation Xrotation Yrotation
                  JOINT Bip001_L_Finger0
                  {
                    OFFSET 6.04639 -2.20976 5.90322
                    CHANNELS 3 Zrotation Xrotation Yrotation
                    End Site
                    {
                      OFFSET 4.22375 -1.43895 0.606485
                    }
                  }
                  JOINT Bip001_L_Finger1
                  {
                    OFFSET 11.0826 -0.704819 -0.198153
                    CHANNELS 3 Zrotation Xrotation Yrotation
                    End Site
                    {
                      OFFSET 6.20027 -0.397518 -0.0787166
                    }
                  }
                }
              }
            }
          }
          JOINT Bip001_R_Clavicle
          {
            OFFSET -6.06037 -0.000563197 0.00835105
            CHANNELS 3 Zrotation Xrotation Yrotation
            JOINT Bip001_R_UpperArm
            {
              OFFSET -11.5509 -0.0599978 0.00190698
              CHANNELS 3 Zrotation Xrotation Yrotation
              JOINT Bip001_R_Forearm
              {
                OFFSET -25.9523 0.0806822 -2.15589
                CHANNELS 3 Zrotation Xrotation Yrotation
                JOINT Bip001_R_Hand
                {
                  OFFSET -32.2475 0.153859 1.63989
                  CHANNELS 3 Zrotation Xrotation Yrotation
                  JOINT Bip001_R_Finger0
                  {
                    OFFSET -6.04641 -2.20976 5.90317
                    CHANNELS 3 Zrotation Xrotation Yrotation
                    End Site
                    {
                      OFFSET -4.22376 -1.43895 0.60647
                    }
                  }
                  JOINT Bip001_R_Finger1
                  {
                    OFFSET -11.0826 -0.704794 -0.198182
                    CHANNELS 3 Zrotation Xrotation Yrotation
                    End Site
                    {
                      OFFSET -6.20028 -0.397504 -0.0787333
                    }
                  }
                }
              }
            }
          }
          JOINT Bip001_Head
          {
            OFFSET 1.09673e-005 11.2744 2.05948
            CHANNELS 3 Zrotation Xrotation Yrotation
            End Site
            {
              OFFSET 2.89576e-005 20.8808 -2.77728e-005
            }
          }
        }
      }
    }
  }
}
MOTION
Frames:	8
Frame Time:	0.04
33.8406 95.8356 -27.6479 1.15293 -1.05935 -0.781266 -0.215951 1.80958 -0.233387 3.85998 -0.654376 7.21127 0.235019 5.91131 -2.28352 0.244702 -4.47855 0.0110578 1.03618 -4.22139 -0.540296 -5.6994 -2.01618 -3.09322 0.496577 10.2576 -0.270151 -5.4301 -9.16974 1.9811 2.53683 -8.56561 2.72286 -0.421059 3.61472 -0.459492 -0.424553 3.61471 -0.459807 1.41146 -2.88385 -1.216 -23.9179 5.61722 -6.29659 -54.6518 40.7098 3.68395 12.3828 -4.40454 -22.2131 6.7362 0.635441 -3.37688 -3.18055e-015 6.36111e-015 -1.59028e-015 3.53113e-031 6.36111e-015 -3.18055e-015 20.895 10.6988 22.5849 61.1712 36.388 -7.71172 -23.6055 17.1922 15.036 0.203418 -6.48375 6.07041 -2.20695e-032 -1.59028e-015 -7.95139e-016 -3.18055e-015 -1.59028e-015 -7.95139e-016 -2.94228 1.01478 -0.119183 
33.832 95.8347 -27.6072 1.15268 -1.03918 -0.809955 -0.215635 1.81872 -0.242178 3.83522 -0.617292 7.08505 0.247678 5.82935 -2.15737 0.175498 -4.4849 0.0110579 0.986599 -4.22158 -0.48729 -5.69841 -2.0273 -3.04838 0.494429 10.2688 -0.257808 -5.43355 -9.18802 1.95588 2.53683 -8.56561 2.72286 -0.419806 3.63789 -0.476311 -0.42329 3.6379 -0.476787 1.41212 -2.85383 -1.1659 -23.8155 5.6029 -6.35247 -54.6515 40.6519 3.56609 12.3473 -4.41993 -22.101 7.01484 0.730734 -3.45706 -3.18055e-015 -9.54166e-015 3.18055e-015 -3.18055e-015 -9.54167e-015 3.18055e-015 20.8417 10.6159 22.4661 61.0721 36.2738 -7.61279 -23.5956 17.144 14.9881 0.154186 -6.49114 6.07017 -3.18055e-015 -4.77083e-015 -0 6.62086e-032 -4.77083e-015 7.95139e-016 -2.96462 0.842546 -0.0692414 
33.8227 95.8306 -27.5663 1.15592 -0.987874 -0.833039 -0.214985 1.83331 -0.260568 3.80534 -0.645044 7.15105 0.279509 5.80429 -2.23239 0.391301 -4.37865 0.0110563 1.12943 -4.31663 -0.613326 -5.704 -2.10722 -3.0847 0.493145 10.3403 -0.248892 -5.4248 -9.23225 2.00714 2.53683 -8.56561 2.72286 -0.417109 3.66754 -0.514629 -0.420619 3.66755 -0.514697 1.37941 -2.84985 -1.10487 -23.6993 5.61485 -6.40176 -54.5829 40.5248 3.39897 12.2143 -4.61366 -22.0614 7.25105 0.91198 -3.45036 -6.36111e-015 6.36111e-015 -1.59028e-015 -3.18055e-015 9.54167e-015 -1.59028e-015 20.7253 10.5385 22.3852 61.0432 36.2463 -7.49835 -23.6615 17.2107 14.6824 -0.213148 -6.64091 6.0479 3.18055e-015 -3.18055e-015 1.59028e-015 3.18055e-015 -1.59028e-015 7.95139e-016 -2.99049 0.744258 -0.0106143 
33.8184 95.8203 -27.5272 1.17636 -0.937 -0.870193 -0.214257 1.85555 -0.279941 3.77257 -0.702987 7.27397 0.298309 5.82786 -2.28393 0.495892 -4.35414 0.00897629 1.20633 -4.41559 -0.715458 -5.73631 -2.17577 -2.73868 0.587706 10.364 -0.293766 -5.51614 -9.25884 1.76299 2.53594 -8.54744 2.72259 -0.414196 3.71208 -0.553456 -0.414197 3.71209 -0.553458 0.949423 -2.32492 -1.00032 -23.277 5.18334 -6.68343 -54.325 40.4028 3.19756 12.2307 -4.27941 -21.9981 7.33841 0.661549 -3.65242 3.18055e-015 3.18055e-015 -3.18055e-015 3.18055e-015 3.18056e-015 -3.18055e-015 21.2278 10.0636 22.5613 60.7343 35.7091 -7.58489 -23.8418 17.3164 14.4033 -1.7029 -6.64006 5.96214 -3.18055e-015 -1.59028e-015 7.95139e-016 -3.18055e-015 0 7.95139e-016 -2.43096 -0.118276 -0.173889 
33.8203 95.7992 -27.4736 1.24259 -0.970633 -0.895469 -0.240078 1.9081 -0.328565 3.70866 -0.671944 7.23102 0.297688 5.78924 -2.23223 0.779507 -4.19108 0.00513524 1.28183 -4.64293 -0.743762 -5.79028 -2.25248 -2.84242 0.566192 10.5524 -0.265402 -5.51831 -9.42357 1.89649 2.54001 -8.58066 2.73933 -0.468733 3.81753 -0.649772 -0.468732 3.81753 -0.649773 1.10698 -2.29023 -0.878443 -23.1644 5.11409 -6.60524 -54.2988 40.2431 2.95754 12.1121 -4.58772 -22.0939 7.18921 0.873801 -3.65745 -3.18055e-015 -3.18055e-015 3.18055e-015 2.64834e-031 -9.54167e-015 1.59028e-015 21.5113 10.1183 22.5745 59.6861 32.6655 -7.56317 -24.4164 15.7267 14.4382 -3.52773 -6.39292 6.59274 8.82781e-032 3.18055e-015 -1.59028e-015 3.18055e-015 0 -1.59028e-015 -2.64164 -0.470776 0.0294103 
33.839 95.799 -27.4075 1.4907 -1.12353 -0.75464 -0.287186 1.9389 -0.40697 3.54039 -0.378322 7.50925 0.223453 5.49487 -2.36777 0.50706 -4.24531 0.00158145 1.25636 -4.57108 -0.74941 -6.0032 -2.22858 -2.54089 0.612919 10.8818 -0.303474 -5.61992 -9.55884 1.62837 2.56339 -8.65762 2.76174 -0.572037 3.87981 -0.803392 -0.568551 3.87981 -0.803579 1.12205 -2.09389 -0.685199 -22.749 4.93513 -6.73378 -54.8968 39.584 3.55601 11.9506 -5.08581 -22.8391 7.17141 1.16924 -3.76265 3.18055e-015 3.18055e-015 3.18055e-015 -1.76556e-031 3.18056e-015 3.18055e-015 21.9564 9.61709 21.2468 58.1409 24.4841 -8.26703 -26.066 10.3285 18.0467 -5.38227 -5.79347 7.14895 0 0 -0 3.18055e-015 3.18056e-015 1.59028e-015 -2.54618 -0.807992 0.185752 
33.7483 95.7769 -27.3617 1.56328 -1.1992 -0.17684 -0.265802 1.9565 -0.656816 3.77958 -0.448218 9.95092 -0.0416588 5.74396 -4.91119 0.778441 -4.28708 -0.000395495 1.55791 -4.69892 -1.09381 -5.87423 -2.12403 -1.51221 0.608479 11.0221 -0.509333 -5.98311 -9.52959 0.569197 2.61184 -8.78496 2.78455 -0.502431 3.91637 -1.3067 -0.505915 3.9161 -1.30651 0.807517 -2.02766 -0.170372 -21.8801 4.84853 -6.60311 -56.1673 38.5274 4.81564 12.5982 -4.62336 -24.2299 7.09824 0.76488 -4.48482 3.18055e-015 6.36111e-015 3.18055e-015 3.18055e-015 0 4.77083e-015 22.6538 8.72676 18.4973 55.7178 9.39627 -9.39229 -29.0097 7.085 26.8321 -13.3375 -5.3069 5.54024 -9.54166e-015 -6.36111e-015 -3.18055e-015 -1.27222e-014 -6.36111e-015 -0 -2.1928 -1.30935 0.521227 
33.7426 95.7433 -27.2868 1.54365 -1.16526 1.0778 -0.163085 1.94756 -1.17985 3.90622 -0.887352 11.4795 -0.0863436 6.35642 -7.0483 1.14506 -4.34031 0.000887688 1.73315 -4.89266 -1.28041 -5.7822 -1.80053 -0.802802 0.661399 10.8438 -0.689805 -6.42636 -9.41224 -0.654617 2.69152 -9.02846 2.87224 -0.286213 3.89799 -2.3562 -0.286214 3.89802 -2.3562 0.59323 -1.96456 0.729073 -20.9872 4.86527 -6.76386 -57.9394 36.543 7.2109 12.8065 -4.73478 -26.4747 8.00657 0.0990178 -5.14524 0 1.59028e-014 -0 3.18055e-015 1.59028e-014 -0 22.4925 7.40079 14.9458 54.1093 -9.66059 -10.6258 -37.3688 7.5138 40.3724 -19.2063 -6.08904 5.49265 -3.18055e-015 -2.38542e-015 -0 7.95139e-016 -2.78299e-015 -0 -2.36918 -1.81274 1.37327 
